<svg width="49" height="46" viewBox="0 0 49 46" fill="none" xmlns="http://www.w3.org/2000/svg">
<path fill-rule="evenodd" clip-rule="evenodd" d="M30.2069 45.407L15.3423 45.407C13.7536 45.407 12.2836 44.573 11.4781 43.2145L1.02457 25.7991C0.276568 24.5373 0.203391 22.9907 0.828895 21.665L11.9432 3.16464C12.6798 1.60244 14.262 0.604497 16.0008 0.603422L39.3455 0.59375C40.887 0.593213 42.3207 1.37781 43.1413 2.67132L47.7621 10.1771C49.1318 12.3353 48.2987 15.2872 45.4547 16.6484L31.7695 24.181C31.0671 24.5685 30.8313 25.4579 31.2519 26.1372L38.9942 38.638C40.8285 41.5991 38.6793 45.407 35.1751 45.407L30.2069 45.407Z" fill="#1F1F1F"/>
<path fill-rule="evenodd" clip-rule="evenodd" d="M35.9766 39.4717L32.3796 33.7667C32.0737 33.2803 31.5373 32.9855 30.9613 32.9855L13.9917 32.9855L12.9237 32.9855C11.9404 32.9855 11.5993 31.6844 12.4568 31.2055L13.5827 30.5777C13.5827 30.5777 13.5833 30.5777 13.5833 30.5771L43.777 13.7279C44.6123 13.262 44.8862 12.1952 44.3763 11.387L40.4544 5.16587C39.982 4.41705 39.0047 4.16547 38.2269 4.59198L5.09518 22.7623C4.2621 23.219 3.97789 24.2751 4.47036 25.0854L6.79171 28.9089L12.6602 38.5733L14.2661 41.2198C14.5693 41.7198 15.1133 42.0248 15.6996 42.0248L34.5583 42.0248C35.8752 42.0248 36.6768 40.5822 35.9766 39.4717Z" fill="#FCFCFC"/>
</svg>
